HIERARCHY
ROOT Bip001_Pelvis
{
  OFFSET 32.8599 95.8771 -27.9544
  CHANNELS 6 Xposition Yposition Zposition Zrotation Xrotation Yrotation
  JOINT Bip001_Spine
  {
    OFFSET 1.4188e-005 10.2191 -0.0116013
    CHANNELS 3 Zrotation Xrotation Yrotation
    JOINT Bip001_L_Thigh
    {
      OFFSET 11.0458 -10.2191 0.0116197
      CHANNELS 3 Zrotation Xrotation Yrotation
      JOINT Bip001_L_Calf
      {
        OFFSET -0.707118 -44.0221 0.360014
        CHANNELS 3 Zrotation Xrotation Yrotation
        JOINT Bip001_L_Foot
        {
          OFFSET -0.651902 -40.5938 -3.56146
          CHANNELS 3 Zrotation Xrotation Yrotation
          JOINT Bip001_L_Toe0
          {
            OFFSET 0.0530839 -10.2181 13.1504
            CHANNELS 3 Zrotation Xrotation Yrotation
            End Site
            {
              OFFSET -1.02532e-005 0 7.55606
            }
          }
        }
      }
    }
    JOINT Bip001_R_Thigh
    {
      OFFSET -11.0458 -10.2191 0.0115893
      CHANNELS 3 Zrotation Xrotation Yrotation
      JOINT Bip001_R_Calf
      {
        OFFSET 0.706994 -44.0221 0.35984
        CHANNELS 3 Zrotation Xrotation Yrotation
        JOINT Bip001_R_Foot
        {
          OFFSET 0.651787 -40.5938 -3.5613
          CHANNELS 3 Zrotation Xrotation Yrotation
          JOINT Bip001_R_Toe0
          {
            OFFSET -0.0531479 -10.2181 13.1504
            CHANNELS 3 Zrotation Xrotation Yrotation
            End Site
            {
              OFFSET -1.02894e-005 0 7.55606
            }
          }
        }
      }
    }
    JOINT Bip001_Spine1
    {
      OFFSET 1.87041e-005 14.5736 1.08638
      CHANNELS 3 Zrotation Xrotation Yrotation
      JOINT Bip001_Spine2
      {
        OFFSET 2.24614e-005 14.5058 -1.69078
        CHANNELS 3 Zrotation Xrotation Yrotation
        JOINT Bip001_Neck
        {
          OFFSET 2.20278e-005 15.3945 -0.489414
          CHANNELS 3 Zrotation Xrotation Yrotation
          JOINT Bip001_L_Clavicle
          {
            OFFSET 6.06036 -0.000579998 0.00836775
            CHANNELS 3 Zrotation Xrotation Yrotation
            JOINT Bip001_L_UpperArm
            {
              OFFSET 11.5509 -0.0600302 0.00193952
              CHANNELS 3 Zrotation Xrotation Yrotation
              JOINT Bip001_L_Forearm
              {
                OFFSET 25.9523 0.0806089 -2.15551
                CHANNELS 3 Zrotation Xrotation Yrotation
                JOINT Bip001_L_Hand
                {
                  OFFSET 32.2475 0.153767 1.63968
                  CHANNELS 3 Zrotation Xrotation Yrotation
                  JOINT Bip001_L_Finger0
                  {
                    OFFSET 6.04639 -2.20976 5.90322
                    CHANNELS 3 Zrotation Xrotation Yrotation
                    End Site
                    {
                      OFFSET 4.22375 -1.43895 0.606486
                    }
                  }
                  JOINT Bip001_L_Finger1
                  {
                    OFFSET 11.0826 -0.704819 -0.198153
                    CHANNELS 3 Zrotation Xrotation Yrotation
                    End Site
                    {
                      OFFSET 6.20027 -0.397518 -0.0787166
                    }
                  }
                }
              }
            }
          }
          JOINT Bip001_R_Clavicle
          {
            OFFSET -6.06036 -0.000563197 0.00835105
            CHANNELS 3 Zrotation Xrotation Yrotation
            JOINT Bip001_R_UpperArm
            {
              OFFSET -11.5509 -0.0599978 0.00190698
              CHANNELS 3 Zrotation Xrotation Yrotation
              JOINT Bip001_R_Forearm
              {
                OFFSET -25.9523 0.0806819 -2.1559
                CHANNELS 3 Zrotation Xrotation Yrotation
                JOINT Bip001_R_Hand
                {
                  OFFSET -32.2476 0.153857 1.63991
                  CHANNELS 3 Zrotation Xrotation Yrotation
                  JOINT Bip001_R_Finger0
                  {
                    OFFSET -6.04642 -2.20975 5.9032
                    CHANNELS 3 Zrotation Xrotation Yrotation
                    End Site
                    {
                      OFFSET -4.22376 -1.43894 0.606473
                    }
                  }
                  JOINT Bip001_R_Finger1
                  {
                    OFFSET -11.0826 -0.70479 -0.198183
                    CHANNELS 3 Zrotation Xrotation Yrotation
                    End Site
                    {
                      OFFSET -6.20028 -0.397501 -0.0787337
                    }
                  }
                }
              }
            }
          }
          JOINT Bip001_Head
          {
            OFFSET 1.09673e-005 11.2744 2.05948
            CHANNELS 3 Zrotation Xrotation Yrotation
            End Site
            {
              OFFSET 2.89576e-005 20.8808 -2.77728e-005
            }
          }
        }
      }
    }
  }
}
MOTION
Frames:	13
Frame Time:	0.04
32.6423 95.8463 -28.7163 -0.252392 -0.570773 3.34901 -0.161922 2.11116 0.187253 6.22355 -3.83223 7.16744 -1.17095 8.38518 -12.7213 5.25707 -2.48942 -0.146395 -1.4406 -5.04973 2.69812 -1.98397 -2.65536 -4.53986 -1.01385 10.2693 0.800695 -5.573 -9.42788 2.60641 2.20881 -7.4797 2.27612 -0.331367 4.22107 0.380897 -0.331226 4.22107 0.380892 -0.225305 -8.5522 -3.66626 -25.0553 8.49806 3.10041 -54.0229 43.3905 1.829 16.8684 2.99847 -22.0433 9.31581 1.84752 -4.44437 4.41391e-031 1.59028e-014 -1.59028e-015 -3.18055e-015 6.36111e-015 1.59028e-015 19.0429 17.9341 29.9473 48.6267 7.69382 35.6697 -17.223 3.74615 82.4962 -83.3626 28.4052 57.1743 7.95139e-016 0 -7.95139e-016 1.59028e-015 -3.18056e-015 -7.95139e-016 0.925643 -4.83202 -3.76814 
32.5711 95.8404 -28.7017 -0.425996 -0.581483 3.50128 -0.129645 2.13763 0.248063 6.49504 -4.01302 7.27074 -1.22136 8.69348 -13.049 4.55207 -2.92099 -0.104887 -1.65172 -4.74479 2.94178 -1.74902 -2.52378 -4.73648 -1.08919 9.99305 0.785886 -5.58047 -9.31704 2.59878 2.2122 -7.51144 2.30271 -0.268839 4.27468 0.501494 -0.268841 4.27468 0.501498 0.002708 -8.62016 -3.84754 -25.294 8.51492 3.125 -54.0409 43.3223 2.01768 16.9458 2.96091 -22.2433 9.41673 1.66641 -4.4855 3.18055e-015 0 -1.59028e-015 3.18055e-015 0 -1.59028e-015 16.6883 17.7109 31.6166 45.3866 11.7031 40.5381 -18.2323 0.592937 76.9712 -85.6445 28.4721 57.6581 -7.95139e-016 0 -7.95139e-016 -3.18055e-015 -3.18056e-015 -1.19271e-015 0.702693 -4.94579 -3.85222 
32.4521 95.8444 -28.6935 -0.816554 -0.623437 3.56911 -0.0427635 2.18405 0.305042 7.00072 -4.28956 7.22994 -1.43057 9.18293 -13.0271 5.11299 -3.00936 -0.11368 -1.50913 -4.92105 2.76276 -1.27222 -2.28266 -4.7292 -1.20065 9.4221 0.773021 -5.57712 -8.99077 2.50263 2.22659 -7.55356 2.30385 -0.0972823 4.36786 0.612397 -0.097282 4.36786 0.612394 -0.12626 -8.90873 -3.92766 -25.3204 8.76744 3.26867 -53.9408 43.3705 2.09012 16.8908 2.61327 -22.4201 9.44902 1.73283 -4.37823 -3.18055e-015 6.36111e-015 1.59028e-015 -8.82782e-032 3.18056e-015 1.59028e-015 14.6557 17.5661 33.0382 39.8495 16.6916 44.0964 -22.6405 -1.48181 70.8919 -100.801 30.9353 55.2092 -3.97569e-016 -3.18055e-015 -9.93923e-016 -3.97569e-016 0 -1.68967e-015 0.762353 -4.91243 -3.96939 
32.3526 95.8448 -28.6973 -1.185 -0.669513 3.59652 0.0228018 2.26756 0.381431 7.45598 -4.607 7.35486 -1.55181 9.69923 -13.181 5.62799 -3.07582 -0.122572 -1.3509 -5.03973 2.63947 -0.819969 -2.07689 -4.71058 -1.30839 8.84468 0.749387 -5.56845 -8.69394 2.45843 2.21392 -7.51579 2.29024 0.0305057 4.53522 0.76287 0.0305059 4.53522 0.762871 -0.0560294 -9.23882 -4.09 -25.521 9.00366 3.50603 -53.6965 43.5269 1.87358 16.9767 2.66008 -22.3821 9.43267 1.70477 -4.34816 -3.18055e-015 -6.36111e-015 3.18055e-015 -6.36111e-015 -6.36111e-015 3.18055e-015 13.0485 17.4048 33.4721 44.2077 16.578 46.4415 -21.2934 -6.02895 70.176 -107.611 26.0069 68.5885 -7.95139e-016 -3.18055e-015 7.95139e-016 2.20695e-032 -3.18056e-015 3.97569e-016 0.743087 -5.05497 -4.08404 
32.3313 95.8527 -28.7474 -1.29617 -0.632667 3.53586 0.0196317 2.26976 0.408673 7.64681 -4.76345 7.51631 -1.55215 9.91641 -13.3011 4.68319 -3.55583 -0.0769337 -1.64986 -4.67056 2.90573 -0.692336 -2.06603 -4.62874 -1.293 8.6303 0.740322 -5.54889 -8.55919 2.4119 2.20779 -7.49538 2.27408 0.0230744 4.53959 0.817533 0.023076 4.53959 0.817533 0.344815 -8.76659 -4.18141 -25.913 8.6408 2.92604 -53.7244 43.0696 2.40478 16.782 2.38448 -22.6412 9.43298 1.77776 -4.1843 3.18055e-015 6.36111e-015 -1.59028e-015 -3.18055e-015 9.54167e-015 -1.59028e-015 12.9181 16.8611 32.6185 45.9148 14.0541 47.6265 -21.7829 3.15608 76.1075 -102.561 28.6139 66.0188 -7.95139e-016 3.18055e-015 1.59028e-015 -0 0 2.38542e-015 0.54029 -5.33606 -4.06654 
32.4282 95.8582 -28.8042 -0.959387 -0.588527 3.23245 -0.0383339 2.19494 0.336134 7.13811 -4.4209 8.07296 -1.29156 9.36333 -13.6205 5.2053 -3.0016 -0.113705 -1.47855 -4.96722 2.75134 -1.1589 -2.31621 -4.30698 -1.10372 9.13062 0.712924 -5.50045 -8.80061 2.45593 2.19213 -7.43365 2.26 -0.0885684 4.38959 0.671343 -0.0891963 4.38959 0.671493 -0.109395 -8.10269 -3.86689 -25.3383 8.22283 2.34739 -54.2966 42.9156 3.02415 16.5014 2.69727 -22.2416 9.27192 1.59759 -4.31348 -8.82781e-032 3.18055e-015 1.59028e-015 -0 0 1.59028e-015 14.395 16.5044 32.5657 40.8005 16.3274 49.996 -22.3333 1.58017 73.7718 -100.422 30.1159 65.9157 1.76556e-031 6.36111e-015 -1.59028e-015 1.59028e-015 9.54167e-015 7.95139e-016 0.865466 -4.4649 -3.92952 
32.5997 95.8595 -28.7945 -0.448179 -0.869773 2.5558 -0.113309 2.25799 0.328814 6.36468 -3.63446 8.75064 -0.913557 8.53497 -13.8383 5.34803 -2.55277 -0.146704 -1.48431 -5.0863 2.77763 -1.88061 -2.5179 -4.07915 -0.888384 9.91766 0.775645 -5.37414 -9.22923 2.81753 2.1646 -7.34488 2.22764 -0.239876 4.5153 0.66287 -0.239877 4.5153 0.66287 -1.08873 -8.43479 -3.4561 -24.268 8.6189 2.63394 -54.2055 43.776 2.0491 16.2608 3.1701 -20.8561 8.38022 1.70075 -4.4065 3.18055e-015 3.18055e-015 1.59028e-015 3.18055e-015 3.18056e-015 1.59028e-015 14.5674 16.8802 33.9729 37.7373 17.0756 51.6754 -19.6727 -4.54027 69.0986 -94.6722 30.7209 68.461 1.59028e-015 -6.36111e-015 3.97569e-015 3.18055e-015 -3.18056e-015 3.97569e-015 1.64641 -3.56175 -3.90224 
32.5662 95.8746 -28.8747 -0.624408 -0.943878 2.20998 -0.07577 2.26845 0.423184 6.49145 -3.66743 8.14078 -0.929409 8.71392 -12.9115 5.3724 -2.63224 -0.139114 -1.42118 -5.07744 2.72628 -1.75657 -2.47911 -3.77787 -0.805847 9.72819 0.815498 -5.36849 -9.04394 2.77136 2.13645 -7.25685 2.19878 -0.167795 4.53619 0.850552 -0.168136 4.53622 0.850428 -0.924664 -8.42824 -3.58239 -24.5239 8.54273 2.75627 -53.7941 44.4932 1.18246 16.1514 3.09843 -20.0128 7.50017 1.95636 -3.98235 3.18055e-015 -3.18055e-015 -3.18055e-015 3.18055e-015 -3.18056e-015 -4.77083e-015 13.7318 16.8473 34.9761 36.0507 17.1581 51.6829 -22.6359 -1.64095 67.4517 -81.6533 33.6268 56.6825 3.18055e-015 -1.27222e-014 -9.93923e-016 4.17448e-015 -9.54167e-015 -1.09332e-015 1.62042 -3.89427 -3.97407 
32.5149 95.8866 -28.9411 -0.842464 -0.911514 2.17078 -0.0233309 2.24533 0.525384 6.64528 -3.84572 8.59722 -0.718937 8.95024 -13.4102 5.12745 -2.80356 -0.124129 -1.46207 -5.04156 2.74609 -1.57333 -2.397 -3.72362 -0.767248 9.4147 0.835151 -5.33383 -8.82839 2.72564 2.10543 -7.14012 2.14314 -0.0697731 4.49035 1.05357 -0.0685737 4.49036 1.05334 -0.338594 -8.28509 -3.93533 -25.406 8.31518 2.68111 -53.5463 44.2844 1.1116 16.172 2.76927 -20.2365 7.58496 2.06615 -3.66669 3.18055e-015 -9.54166e-015 -0 2.64834e-031 -9.54167e-015 1.59028e-015 13.2521 16.8057 35.173 35.1051 17.3939 51.175 -20.5122 -4.12303 65.9602 -75.0475 34.2395 53.9334 -3.18055e-015 6.36111e-015 -6.75868e-015 -1.59028e-015 3.18056e-015 -6.36111e-015 1.05645 -4.52801 -4.07841 
32.5198 95.8942 -28.9799 -0.521523 -0.849891 2.32438 -0.0926994 2.2171 0.496795 6.30736 -3.61218 8.50382 -0.727285 8.27303 -13.4974 5.61295 -2.11292 -0.173057 -1.24989 -5.35835 2.59232 -1.86428 -2.60111 -4.03006 -0.785651 9.81603 0.832026 -5.27197 -9.07043 2.91595 2.0942 -7.10662 2.14255 -0.197885 4.43334 0.99576 -0.200713 4.43336 0.996689 -0.229133 -8.58972 -3.94456 -25.6339 8.52111 2.99228 -53.6777 43.6368 1.44913 16.3435 2.58839 -21.231 8.77218 1.84895 -3.88412 3.18055e-015 0 3.18055e-015 6.36111e-015 6.36111e-015 1.59028e-015 14.2609 17.5216 34.9829 33.8989 17.5732 49.8224 -19.7082 -5.45116 64.4959 -70.0674 34.4726 52.5402 7.95139e-016 3.18055e-015 -7.95139e-016 -1.59028e-015 0 -2.38542e-015 1.02922 -4.41633 -4.05699 
32.439 95.8871 -29.0613 -0.467991 -0.685489 2.72063 -0.113269 2.16767 0.370229 6.39823 -3.80684 7.58092 -0.986509 8.15202 -12.8352 5.49778 -1.94034 -0.182079 -1.28124 -5.42218 2.59037 -1.8027 -2.79653 -4.21476 -0.87196 9.99342 0.873151 -5.35442 -9.15118 2.82105 2.09455 -7.11408 2.1355 -0.249953 4.33452 0.745928 -0.24925 4.33451 0.745896 -0.317564 -8.92633 -3.83389 -25.4616 8.71345 3.58269 -53.9325 43.4079 1.76371 16.753 2.51892 -22.2659 9.38795 1.56213 -4.25335 -9.54166e-015 3.18055e-015 -0 -9.54166e-015 6.36111e-015 -0 16.0639 18.3836 34.3585 33.8346 17.2407 46.6007 -20.1593 -2.56634 64.7129 -65.2728 32.6828 48.3341 -5.56597e-015 3.18055e-015 -4.77083e-015 -7.15625e-015 3.18056e-015 -3.18055e-015 1.27334 -4.37689 -4.01918 
32.3296 95.8729 -29.114 -0.703753 -0.407559 2.81345 -0.106286 2.0725 0.371866 6.83868 -4.24482 7.41442 -1.29241 8.57232 -12.654 5.79172 -2.01194 -0.184047 -1.1753 -5.47847 2.52388 -1.42245 -2.98047 -4.00808 -0.977032 9.89213 0.826284 -5.49837 -8.99953 2.55852 2.116 -7.18431 2.16065 -0.226261 4.14425 0.748313 -0.226262 4.14426 0.748317 0.0166479 -8.76704 -3.8849 -25.556 8.47621 3.70595 -54.3231 43.6992 2.07289 17.0576 2.25543 -22.7652 9.6044 1.55768 -4.25872 -6.36111e-015 0 3.18055e-015 -3.18055e-015 3.18056e-015 1.59028e-015 17.8748 18.7039 33.031 33.7596 16.9856 42.4043 -17.8503 -1.31653 65.5854 -61.9838 32.1345 46.8389 -3.18055e-015 0 -6.36111e-015 -4.77083e-015 3.18056e-015 -7.95139e-015 1.04309 -4.71734 -3.94617 
32.4061 95.877 -29.0855 -0.337149 -0.437127 3.20071 -0.188014 2.07793 0.327784 6.40917 -4.06122 6.50223 -1.25022 8.0884 -12.121 5.68558 -1.76592 -0.194354 -1.21118 -5.42288 2.55473 -1.7801 -3.07987 -4.68353 -1.03629 10.3613 0.818973 -5.43991 -9.31836 2.82771 2.12104 -7.21057 2.18065 -0.387683 4.15982 0.664937 -0.387929 4.15984 0.663989 0.215727 -8.93707 -3.96755 -25.5314 8.60046 3.79648 -54.4709 44.1438 1.83214 17.0523 1.99187 -22.7601 9.69642 1.60301 -4.48158 6.36111e-015 -3.18055e-015 -0 9.54166e-015 -3.18056e-015 -0 20.0465 19.1581 30.8404 34.0436 17.8056 37.8777 -16.4944 -0.257452 65.1511 -56.5158 32.0391 44.6324 7.95139e-015 -3.18055e-015 -3.18055e-015 3.18055e-015 -3.18056e-015 -6.36111e-015 0.888893 -4.65502 -3.95868 
